<svg version="1.1" xmlns="http://www.w3.org/2000/svg" width="308.99px" height="308.99px" viewBox="0 0 308.99 308.99">
    <path d="M 301 82 L 160 19 c -3 -2 -7 -2 -11 0 L 8 82 c -5 2 -8 7 -8 12 c -0 5 3 10 7 12 l 141 75 c 2 1 4 2 6 2 c 2 0 4 -1 6 -2 l 141 -75 c 4 -2 7 -7 7 -12 C 309 89 306 84 301 82 z"/>
    <path d="M 290 139 l -135 72 l -135 -72 c -7 -3 -15 -1 -18 6 c -4 6 -1 15 5 18 L 148 238 c 2 1 4 2 6 2 c 2 0 4 -1 6 -2 l 141 -75 c 6 -3 9 -11 5 -18 C 304 138 296 135 290 139 z"/>
    <path d="M 290 190 l -135 72 L 19 190 c -6 -3 -14 -1 -18 5 c -3 6 -1 14 5 18 l 141 75 c 2 1 4 2 6 2 c 2 0 4 -1 6 -2 l 141 -75 c 6 -3 9 -11 5 -18 C 304 189 296 187 290 190 z"/>
</svg>
